<svg id="Layer_1" enable-background="new 0 0 512 512" height="512" viewBox="0 0 512 512" width="512" xmlns="http://www.w3.org/2000/svg"><g><path d="m256 21.996c-135.311 0-245.002 109.691-245.002 245.002 0 64.061 24.597 122.37 64.849 166.025l114.602 70.095c20.866 5.78 42.845 8.882 65.551 8.882 135.311 0 245.002-109.691 245.002-245.002s-109.691-245.002-245.002-245.002z" fill="#4fabf7"/><path d="m470.816 0h-146.012c-15.533 0-28.242 12.709-28.242 28.242v115.933c0 15.533 12.709 28.242 28.242 28.242 3.971 0 6.171 4.56 3.743 7.701-2.587 3.347-5.487 6.467-8.706 9.303-6.006 5.29-2.628 16.137 4.989 16.113 19.358-.06 37.5-9.886 49.847-25.89 3.47-4.498 8.752-7.227 14.433-7.227h81.706c15.533 0 28.242-12.709 28.242-28.242v-115.933c-.001-15.533-12.71-28.242-28.242-28.242z" fill="#e9efff"/><path d="m324.804 0c-15.533 0-28.242 12.709-28.242 28.242v115.933c0 15.533 12.709 28.242 28.242 28.242 3.971 0 6.171 4.56 3.743 7.701-2.587 3.347-5.487 6.467-8.706 9.303-6.006 5.29-2.627 16.137 4.989 16.113 19.358-.06 37.5-9.886 49.847-25.89 3.47-4.498 8.752-7.227 14.432-7.227h8.7c-32.693-32.693 0-69.65 0-69.65v-30.111c-33.906-33.907-4.697-72.656-4.697-72.656z" fill="#bec8f7"/><g fill="#4fabf7"><circle cx="346.449" cy="87.711" r="15.056"/><circle cx="397.81" cy="87.711" r="15.056"/><circle cx="449.171" cy="87.711" r="15.056"/></g><path d="m325.242 267.892-1.647-.951c-9.528-5.501-21.825-2.206-27.326 7.322l6.73-11.656c5.346-9.259 3.298-21.282-5.257-27.694-10.198-7.643-24.578-4.45-30.761 6.259l2.113-3.66c5.346-9.259 3.299-21.282-5.256-27.693-10.198-7.643-24.578-4.451-30.761 6.259l33.317-57.706c5.346-9.259 3.298-21.282-5.257-27.694-10.199-7.643-24.578-4.45-30.761 6.259l-55.608 96.316c-1.096 1.897-3.542 2.511-5.398 1.348-4.79-3.004-12.227-7.525-22.286-4.151-22.029 7.391-37.363 27.427-38.737 50.628-.989 21.337-1.959-3.313 8.24 71.63.739 4.968-.227 10.04-2.739 14.39l-38 65.925c30.501 33.08 69.993 57.737 114.603 70.095l43.915-76.182c7.335-12.704 31.099-15.496 51.056-50.064 4.422-7.658 35.656-61.755 47.144-81.654 5.499-9.528 2.204-21.825-7.324-27.326z" fill="#f9ba8f"/><path d="m254.751 126.814 8.459 4.884c4.858 2.805 6.538 9.075 3.733 13.933l-9.173 15.889c-2.805 4.859-9.075 6.539-13.933 3.734l-8.459-4.884c-4.858-2.805-6.538-9.074-3.733-13.933l9.174-15.889c2.804-4.859 9.074-6.539 13.932-3.734z" fill="#f9dfcd"/><path d="m144.48 265.541c4.824 2.785 10.992 1.132 13.777-3.692l16.51-28.596c-1.095 1.897-3.542 2.511-5.398 1.347-3.657-2.293-8.861-5.459-15.593-5.333l-12.988 22.496c-2.785 4.824-1.132 10.992 3.692 13.778z" fill="#fd995b"/><g><path d="m10.998 266.998c0 37.038 8.238 72.144 22.953 103.616 13.752-3.022 26.412-9.19 35.989-19.523 4.371-4.716 8-10.263 9.672-16.473 2.621-9.74.25-20.018-1.313-29.983-2.819-17.966-2.927-36.604 2.078-54.088s15.447-33.766 30.655-43.739c17.493-11.47 39.393-13.745 58.399-22.482 25.757-11.84 45.42-36.159 51.604-63.824 6.955-31.111-2.147-65.152.976-96.15-119.221 16.551-211.013 118.87-211.013 242.646z" fill="#73c3f9"/></g><g><path d="m500.523 282.131c-6.977-7.685-15.543-13.853-25.238-17.651-24.207-9.483-54.394-2.667-70.787 17.512-8.389 10.326-12.931 23.143-18.184 35.366-17.487 40.692-44.075 76.814-72.546 110.74-5.527 6.586-11.24 13.28-14.289 21.32-5.948 15.683.404 35.102 14.471 44.239 5.283 3.432 11.204 5.388 17.389 6.522 93.855-30.302 162.944-115.679 169.184-218.048z" fill="#73c3f9"/></g><path d="m234.364 426.936c2.867-4.966 8.251-8.422 14.93-12.849-99.817 13.253-132.708-61.38-132.708-61.38.739 4.968-.227 10.04-2.739 14.39l-38 65.925c30.501 33.08 69.993 57.737 114.603 70.095z" fill="#fd995b"/></g></svg>